HIERARCHY
ROOT Hips
{
    OFFSET 0.000000 0.000000 0.000000
    CHANNELS 6 Xposition Yposition Zposition Zrotation Xrotation Yrotation
    JOINT Spine
    {
        OFFSET -0.000000 14.517291 0.000000
        CHANNELS 3 Zrotation Xrotation Yrotation
        JOINT Spine1
        {
            OFFSET -0.000000 37.558300 0.000000
            CHANNELS 3 Zrotation Xrotation Yrotation
            JOINT Neck
            {
                OFFSET -0.000000 37.404057 3.400369
                CHANNELS 3 Zrotation Xrotation Yrotation
                JOINT Head
                {
                    OFFSET -0.000000 24.785618 -3.540803
                    CHANNELS 3 Zrotation Xrotation Yrotation
                    End Site
                    {
                        OFFSET -0.000000 35.408028 0.000000
                    }
                }
            }
            JOINT LeftShoulder
            {
                OFFSET 6.992933 33.973492 -0.192664
                CHANNELS 3 Zrotation Xrotation Yrotation
                JOINT LeftArm
                {
                    OFFSET 21.527611 0.000000 0.000000
                    CHANNELS 3 Zrotation Xrotation Yrotation
                    JOINT LeftForeArm
                    {
                        OFFSET 56.353916 0.000000 0.000000
                        CHANNELS 3 Zrotation Xrotation Yrotation
                        JOINT LeftHand
                        {
                            OFFSET 47.774071 0.000000 0.000000
                            CHANNELS 3 Zrotation Xrotation Yrotation
                            End Site
                            {
                                OFFSET 26.556021 0.000000 0.000000
                            }
                        }
                    }
                }
            }
            JOINT RightShoulder
            {
                OFFSET -7.065357 33.973492 -0.192664
                CHANNELS 3 Zrotation Xrotation Yrotation
                JOINT RightArm
                {
                    OFFSET -21.527611 0.000000 0.000000
                    CHANNELS 3 Zrotation Xrotation Yrotation
                    JOINT RightForeArm
                    {
                        OFFSET -56.353916 0.000000 0.000000
                        CHANNELS 3 Zrotation Xrotation Yrotation
                        JOINT RightHand
                        {
                            OFFSET -47.774071 0.000000 0.000000
                            CHANNELS 3 Zrotation Xrotation Yrotation
                            End Site
                            {
                                OFFSET -26.556021 0.000000 0.000000
                            }
                        }
                    }
                }
            }
        }
    }
    JOINT LeftUpLeg
    {
        OFFSET 17.704014 0.000000 0.000000
        CHANNELS 3 Zrotation Xrotation Yrotation
        JOINT LeftLeg
        {
            OFFSET -0.000000 -81.181816 0.000000
            CHANNELS 3 Zrotation Xrotation Yrotation
            JOINT LeftFoot
            {
                OFFSET -0.000000 -62.821102 0.000000
                CHANNELS 3 Zrotation Xrotation Yrotation
                JOINT LeftToeBase
                {
                    OFFSET -0.000000 -11.507608 26.556021
                    CHANNELS 3 Zrotation Xrotation Yrotation
                    End Site
                    {
                        OFFSET -0.000000 0.000000 7.081605
                    }
                }
            }
        }
    }
    JOINT RightUpLeg
    {
        OFFSET -17.704014 0.000000 0.000000
        CHANNELS 3 Zrotation Xrotation Yrotation
        JOINT RightLeg
        {
            OFFSET -0.000000 -81.181816 0.000000
            CHANNELS 3 Zrotation Xrotation Yrotation
            JOINT RightFoot
            {
                OFFSET -0.000000 -62.821102 0.000000
                CHANNELS 3 Zrotation Xrotation Yrotation
                JOINT RightToeBase
                {
                    OFFSET -0.000000 -11.507608 26.556021
                    CHANNELS 3 Zrotation Xrotation Yrotation
                    End Site
                    {
                        OFFSET -0.000000 0.000000 7.081605
                    }
                }
            }
        }
    }
}
MOTION
Frames:    5
Frame Time:    0.008333
25.604551    156.197174    -35.107506    1.515178    -0.759089    -44.494480    1.467434    -1.805009    0.987463    1.400882    2.888898    0.284101    14.513929    -3.217694    15.299929    -8.426026    10.056637    12.903683    9.109679    0.661040    -17.923063    -11.417631    -17.082523    -44.142021    11.699808    -38.889561    -23.887676    -27.840090    -27.273453    -43.691639    -5.073101    8.331865    0.973416    28.057608    21.780432    66.510208    37.465424    8.180050    34.458961    2.847033    -3.320729    22.454725    16.940092    -19.525379    4.222209    -11.720828    18.393763    -3.667470    -8.137236    0.057716    38.053337    0.000000    0.000000    0.000000    -16.106068    1.263727    -6.685307    6.754367    27.390057    -2.609339    5.469098    -21.451986    -16.885927    0.000000    0.000000    0.000000    
25.607052    156.198120    -35.117264    1.504780    -0.753586    -44.506054    1.469579    -1.804690    0.984748    1.389891    2.898872    0.283329    14.541080    -3.218543    15.316061    -8.447289    10.100154    12.917693    9.138577    0.717187    -17.854294    -11.460285    -17.137234    -44.220821    11.678968    -38.881927    -23.860088    -27.843897    -27.271950    -43.683388    -5.069475    8.355399    0.977741    27.970701    21.937458    66.398933    37.369652    8.115048    34.282352    2.858318    -3.284034    22.476433    16.954254    -19.519331    4.232553    -11.715345    18.389946    -3.664516    -8.138330    0.061963    38.052334    0.000000    0.000000    0.000000    -16.097660    1.258506    -6.674966    6.770107    27.392883    -2.610754    5.450223    -21.444027    -16.897341    0.000000    0.000000    0.000000    
25.611513    156.200546    -35.125610    1.497036    -0.747769    -44.513363    1.478410    -1.806136    0.974263    1.376009    2.905143    0.280083    14.546030    -3.201244    15.324796    -8.460080    10.115829    12.928696    9.115568    0.672591    -17.873243    -11.435273    -17.072601    -44.150803    11.681488    -38.907524    -23.854494    -27.844189    -27.305065    -43.668266    -5.080389    8.365321    0.992638    27.949221    22.031860    66.290047    37.380833    7.992933    34.055466    2.903547    -3.319588    22.388184    16.963242    -19.517160    4.224767    -11.711976    18.385830    -3.651532    -8.140444    0.061337    38.052540    0.000000    0.000000    0.000000    -16.089073    1.252992    -6.689852    6.759974    27.392757    -2.604105    5.466374    -21.432205    -16.875790    0.000000    0.000000    0.000000    
25.614258    156.204041    -35.135330    1.489687    -0.743353    -44.524860    1.474345    -1.801980    0.969650    1.379826    2.903250    0.278402    14.535763    -3.205901    15.325402    -8.449816    10.160293    12.934460    9.123586    0.722763    -17.810738    -11.456534    -17.089100    -44.209911    11.692223    -38.912571    -23.831352    -27.836594    -27.316698    -43.657360    -5.094710    8.379505    0.995925    27.927233    22.108139    66.198738    37.395084    7.928397    33.838398    2.942830    -3.299469    22.437933    16.972946    -19.512756    4.227151    -11.708432    18.378633    -3.641303    -8.145842    0.069974    38.053177    0.000000    0.000000    0.000000    -16.083258    1.252985    -6.687419    6.769034    27.382450    -2.598962    5.447724    -21.420048    -16.876488    0.000000    0.000000    0.000000    
25.619665    156.206207    -35.145199    1.486292    -0.733746    -44.536312    1.476846    -1.807295    0.966654    1.371773    2.903414    0.277643    14.527382    -3.200074    15.327219    -8.431073    10.179414    12.941026    9.117201    0.724714    -17.791130    -11.460387    -17.072222    -44.213009    11.688526    -38.944283    -23.830078    -27.847647    -27.353746    -43.641060    -5.092538    8.410214    0.999535    27.855669    22.190958    66.118500    37.349571    7.820026    33.745419    2.947742    -3.359188    22.374966    16.984640    -19.515022    4.231169    -11.708262    18.371984    -3.622751    -8.148459    0.074635    38.051598    0.000000    0.000000    0.000000    -16.070656    1.237115    -6.705132    6.746070    27.388109    -2.599729    5.471819    -21.410385    -16.833189    0.000000    0.000000    0.000000    
